<svg width="303" height="91" viewBox="0 0 303 91" fill="none" xmlns="http://www.w3.org/2000/svg">
<path d="M298.037 17.7209C294.741 12.2828 290.231 7.9261 284.627 4.76816C279.008 1.60554 272.555 0 265.448 0C258.344 0 252.016 1.60333 246.397 4.76816C240.787 7.9261 236.295 12.2899 233.042 17.7347C231.695 19.9917 230.618 22.3803 229.809 24.8846C229.018 22.2488 227.934 19.7608 226.556 17.439C223.336 12.0196 218.854 7.71115 213.232 4.62944C207.618 1.55709 201.134 0 193.958 0C186.783 0 180.172 1.55709 174.561 4.6319C168.934 7.71115 164.451 12.0218 161.236 17.4413C159.916 19.6614 158.87 22.0363 158.088 24.5474C157.307 22.0363 156.26 19.6614 154.941 17.439C151.723 12.0196 147.24 7.71115 141.616 4.62944C136.004 1.55709 129.52 0 122.344 0C115.169 0 108.559 1.55709 102.946 4.6319C98.6373 6.99274 95 10.0767 92.0872 13.8236L92.5269 12.5624C93.7101 9.35603 93.6981 6.58619 92.4906 4.32914C91.5488 2.57358 89.5079 0.480579 85.139 0.480579C79.1301 0.480579 76.7366 5.15379 75.8407 7.95364L65.1342 40.0666L56.3044 7.15433C55.8214 5.21848 54.8047 3.61762 53.2807 2.3933C51.7011 1.12495 49.7013 0.482793 47.3369 0.482793C44.9725 0.482793 42.8279 1.13897 41.2846 2.43019C39.862 3.61983 38.8501 5.17003 38.2777 7.03209L28.1172 39.861L17.4445 7.93298C16.5944 5.39876 15.4593 3.58761 13.9741 2.39108C12.3945 1.12274 10.4382 0.480579 8.15597 0.480579C6.08605 0.480579 2.37418 1.00026 0.789811 4.4863C-0.186049 6.62529 -0.258418 9.2729 0.577211 12.359L0.601254 12.4515L19.2197 65.8776L19.239 65.9307C19.8598 67.5985 20.9997 68.9984 22.6226 70.089C24.2433 71.1814 26.0522 71.736 27.9965 71.736C29.9407 71.736 31.8751 71.1814 33.4933 70.0911C35.1743 68.9615 36.2901 67.5038 36.8118 65.7573L46.8781 31.7917L56.4687 65.7251L56.4782 65.7598C57.0023 67.52 58.1545 68.9869 59.8958 70.1165C61.5501 71.193 63.3663 71.7382 65.2935 71.7382C67.3391 71.7382 69.1844 71.1745 70.771 70.0634C72.3677 68.9477 73.4399 67.5223 73.9641 65.8289L84.808 34.7118C84.7912 35.1968 84.7814 35.6821 84.7814 36.174C84.7814 43.1183 86.4093 49.381 89.6166 54.7798C92.8334 60.2017 97.3186 64.5124 102.941 67.5894C108.549 70.6618 115.077 72.221 122.339 72.221C129.602 72.221 136.127 70.664 141.739 67.5916C147.366 64.5099 151.831 60.197 155.008 54.7682C156.3 52.5621 157.327 50.2126 158.096 47.7339C158.875 50.2195 159.919 52.5737 161.231 54.782C164.449 60.2039 168.934 64.5146 174.556 67.5916C180.162 70.664 186.691 72.2235 193.953 72.2235C201.217 72.2235 207.743 70.6664 213.352 67.5938C218.979 64.5121 223.444 60.1992 226.624 54.7704C227.125 53.9111 227.586 53.0287 228.009 52.1278V82.1014C228.009 84.5825 228.933 86.7749 230.678 88.4473C232.424 90.1175 234.72 91 237.309 91C239.901 91 242.327 90.106 244.043 88.4104C245.748 86.7193 246.614 84.5963 246.614 82.1014V65.0967C248.588 66.6007 250.736 67.9035 253.04 68.9962C257.565 71.1399 262.583 72.2279 267.955 72.2279C274.593 72.2279 280.648 70.6086 285.949 67.4185C291.211 64.2512 295.42 59.9014 298.45 54.4886C301.47 49.0992 303 42.9404 303 36.1811C303 29.4215 301.327 23.1843 298.024 17.7325L298.037 17.7209ZM265.451 16.3579C269.209 16.3579 272.452 17.1872 275.367 18.8921C278.307 20.6177 280.583 22.9163 282.318 25.917C284.039 28.8925 284.908 32.3416 284.908 36.1695C284.908 39.9972 284.036 43.3261 282.318 46.2993C280.583 49.3023 278.307 51.6009 275.367 53.3267C272.455 55.0316 269.212 55.861 265.451 55.861C261.692 55.861 258.542 55.0292 255.587 53.3174C252.614 51.5987 250.351 49.3117 248.66 46.32C246.973 43.3448 246.121 39.9303 246.121 36.1695C246.121 32.4085 246.975 28.8741 248.66 25.8964C250.353 22.9094 252.617 20.6201 255.587 18.9014C258.544 17.1897 261.772 16.3579 265.451 16.3579ZM213.292 36.1695C213.292 40.0921 212.456 43.571 210.808 46.5118C209.163 49.4526 206.941 51.6956 204.022 53.373C201.147 55.0245 197.759 55.861 193.958 55.861C190.156 55.861 186.771 55.0245 183.893 53.373C180.966 51.6934 178.722 49.4433 177.032 46.4909C175.352 43.5595 174.503 40.0875 174.503 36.1718C174.503 32.2561 175.357 28.7562 177.04 25.7786C178.73 22.7916 180.971 20.5254 183.893 18.8483C186.771 17.1965 190.154 16.3603 193.955 16.3603C197.756 16.3603 201.142 17.1965 204.017 18.8483C206.931 20.5207 209.15 22.7822 210.798 25.7555C212.448 28.74 213.287 32.2445 213.287 36.1718L213.292 36.1695ZM141.676 36.1695C141.676 40.0921 140.84 43.571 139.192 46.5118C137.544 49.4526 135.326 51.6956 132.406 53.373C129.529 55.0245 126.143 55.861 122.342 55.861C118.54 55.861 115.154 55.0245 112.278 53.373C109.351 51.6934 107.107 49.4433 105.416 46.4909C103.736 43.5595 102.886 40.0875 102.886 36.1718C102.886 32.2561 103.74 28.7562 105.424 25.7786C107.114 22.7916 109.356 20.5254 112.278 18.8483C115.154 17.1965 118.538 16.3603 122.339 16.3603C126.141 16.3603 129.524 17.1965 132.401 18.8483C135.316 20.5207 137.532 22.7822 139.18 25.7555C140.832 28.74 141.671 32.2445 141.671 36.1718L141.676 36.1695Z" fill="#0E76FD"/>
</svg>
